# xmcd
#
# Track frame offsets:
#	150
#	12427
#	23280
#	35080
#	47967
#	59062
#	71247
#	84820
#	96585
#	112962
#	125180
#	138772
#	151517
#	163852
#	177735
#	189622
#	200047
#	218042
#	236790
#	260120
#	272105
#	283800
#	298147
#	313737
#
# Disc length: 4511 seconds
#
# Revision: 2
# Processed by: cddbd v1.4PL0 Copyright (c) Steve Scherf et al.
# Submitted via: audiograbber 1.82.00
#
DISCID=7e119d18
DTITLE=Blues - Grooves From The Blues 60's
DYEAR=1997
DGENRE=Blues
TTITLE0=BB King - How Blue Can You Get?
TTITLE1=Elmore James - Madison Blues
TTITLE2=Sonny Boy Williamson - Bring It On Home
TTITLE3=Little Walter - Dead Presidents
TTITLE4=Howlin' Wolf - Little Red Rooster
TTITLE5=Muddy Waters - You Need Love
TTITLE6=John Lee Hooker - One Bourbon, One Scotch, One Beer
TTITLE7=Bo Diddley - Call Me (Bo´s Blues)
TTITLE8=Otis And Lucille Spann - My Man
TTITLE9=Chuck Berry - The Things I Used To Do
TTITLE10=Koko Taylor - Wang Dang Doodle
TTITLE11=Howlin' Wolf - Back Door Man
TTITLE12=John Lee Hooker - In The Mood
TTITLE13=Albert King - Calling On My Darling
TTITLE14=Junior Parker - Driving Wheel
TTITLE15=Buddy Guy - First Time I Met The Blues
TTITLE16=Muddy Waters - My Home Is In The Delta
TTITLE17=Bobby Bland - Stromy Monday Blues
TTITLE18=BB King - Don´t Answer The Door Parts 1 and 2
TTITLE19=Little Milton - Grits Ain´t Groceries
TTITLE20=Etta James - I'd Rather Go Blind
TTITLE21=Otis Rush - So Many Roads, So Many Trains
TTITLE22=Bobby Bland - Drifting Blues
TTITLE23=BB King - The Thrill Is Gone
EXTD=Universal Music - UMD 80384
EXTT0=
EXTT1=
EXTT2=
EXTT3=
EXTT4=
EXTT5=
EXTT6=
EXTT7=
EXTT8=
EXTT9=
EXTT10=
EXTT11=
EXTT12=
EXTT13=
EXTT14=
EXTT15=
EXTT16=
EXTT17=
EXTT18=
EXTT19=
EXTT20=
EXTT21=
EXTT22=
EXTT23=
PLAYORDER=
